{
	"asset":{
		"generator":"Khronos glTF Blender I/O v3.5.30",
		"version":"2.0"
	},
	"extensionsUsed":[
		"KHR_materials_specular",
		"KHR_materials_ior",
		"KHR_materials_clearcoat"
	],
	"scene":0,
	"scenes":[
		{
			"name":"Scene",
			"nodes":[
				0,
				1,
				2
			]
		}
	],
	"nodes":[
		{
			"mesh":0,
			"name":"back",
			"rotation":[
				0.7071068286895752,
				0,
				0,
				0.7071068286895752
			],
			"scale":[
				21.88030242919922,
				21.88030242919922,
				21.88030242919922
			],
			"translation":[
				0,
				-1.488128900527954,
				0
			]
		},
		{
			"mesh":1,
			"name":"handle",
			"rotation":[
				0.7071068286895752,
				0,
				0,
				0.7071068286895752
			],
			"scale":[
				21.88030242919922,
				21.88030242919922,
				21.88030242919922
			],
			"translation":[
				0,
				-1.488128900527954,
				0
			]
		},
		{
			"mesh":2,
			"name":"machine",
			"rotation":[
				0.7071068286895752,
				0,
				0,
				0.7071068286895752
			],
			"scale":[
				21.88030242919922,
				21.88030242919922,
				21.88030242919922
			],
			"translation":[
				0,
				-1.488128900527954,
				0
			]
		}
	],
	"materials":[
		{
			"doubleSided":true,
			"extensions":{
				"KHR_materials_specular":{
					"specularColorFactor":[
						0,
						0,
						0
					]
				},
				"KHR_materials_ior":{
					"ior":1.4500000476837158
				}
			},
			"name":"Gris",
			"pbrMetallicRoughness":{
				"baseColorFactor":[
					0.37596139311790466,
					0.37596139311790466,
					0.37596139311790466,
					1
				],
				"roughnessFactor":0.20909088850021362
			}
		},
		{
			"doubleSided":true,
			"extensions":{
				"KHR_materials_clearcoat":{
					"clearcoatFactor":0.4363636374473572,
					"clearcoatRoughnessFactor":0.029999999329447746
				},
				"KHR_materials_specular":{
					"specularColorFactor":[
						0.33199003209925293,
						0.33199003209925293,
						0.33199003209925293
					]
				},
				"KHR_materials_ior":{
					"ior":1.4500000476837158
				}
			},
			"name":"Default",
			"pbrMetallicRoughness":{
				"baseColorFactor":[
					0.013242386281490326,
					0.013242386281490326,
					0.013242386281490326,
					1
				],
				"metallicFactor":0.3999999165534973,
				"roughnessFactor":0.288173109292984
			}
		}
	],
	"meshes":[
		{
			"name":"back",
			"primitives":[
				{
					"attributes":{
						"POSITION":0,
						"TEXCOORD_0":1,
						"NORMAL":2
					},
					"indices":3,
					"material":0
				}
			]
		},
		{
			"name":"handle",
			"primitives":[
				{
					"attributes":{
						"POSITION":4,
						"TEXCOORD_0":5,
						"NORMAL":6
					},
					"indices":7,
					"material":0
				}
			]
		},
		{
			"name":"machine",
			"primitives":[
				{
					"attributes":{
						"POSITION":8,
						"TEXCOORD_0":9,
						"NORMAL":10
					},
					"indices":11,
					"material":1
				},
				{
					"attributes":{
						"POSITION":12,
						"TEXCOORD_0":13,
						"NORMAL":14
					},
					"indices":15,
					"material":0
				}
			]
		}
	],
	"accessors":[
		{
			"bufferView":0,
			"componentType":5126,
			"count":3796,
			"max":[
				0.06199999898672104,
				-0.06477999687194824,
				-0.0406000018119812
			],
			"min":[
				-0.06199999898672104,
				-0.12138000130653381,
				-0.30480000376701355
			],
			"type":"VEC3"
		},
		{
			"bufferView":1,
			"componentType":5126,
			"count":3796,
			"type":"VEC2"
		},
		{
			"bufferView":2,
			"componentType":5126,
			"count":3796,
			"type":"VEC3"
		},
		{
			"bufferView":3,
			"componentType":5123,
			"count":14340,
			"type":"SCALAR"
		},
		{
			"bufferView":4,
			"componentType":5126,
			"count":2223,
			"max":[
				0.09533800184726715,
				0.03708939999341965,
				-0.09078919887542725
			],
			"min":[
				0.0411485992372036,
				0.02567729912698269,
				-0.22540000081062317
			],
			"type":"VEC3"
		},
		{
			"bufferView":5,
			"componentType":5126,
			"count":2223,
			"type":"VEC2"
		},
		{
			"bufferView":6,
			"componentType":5126,
			"count":2223,
			"type":"VEC3"
		},
		{
			"bufferView":7,
			"componentType":5123,
			"count":6552,
			"type":"SCALAR"
		},
		{
			"bufferView":8,
			"componentType":5126,
			"count":17813,
			"max":[
				0.07333409786224365,
				0.19044600427150726,
				0
			],
			"min":[
				-0.07050000131130219,
				-0.13038000464439392,
				-0.30480000376701355
			],
			"type":"VEC3"
		},
		{
			"bufferView":9,
			"componentType":5126,
			"count":17813,
			"type":"VEC2"
		},
		{
			"bufferView":10,
			"componentType":5126,
			"count":17813,
			"type":"VEC3"
		},
		{
			"bufferView":11,
			"componentType":5123,
			"count":65388,
			"type":"SCALAR"
		},
		{
			"bufferView":12,
			"componentType":5126,
			"count":1132,
			"max":[
				0.034256599843502045,
				0.10720700025558472,
				-0.3033599853515625
			],
			"min":[
				-0.034256599843502045,
				0.09420710057020187,
				-0.30395999550819397
			],
			"type":"VEC3"
		},
		{
			"bufferView":13,
			"componentType":5126,
			"count":1132,
			"type":"VEC2"
		},
		{
			"bufferView":14,
			"componentType":5126,
			"count":1132,
			"type":"VEC3"
		},
		{
			"bufferView":15,
			"componentType":5123,
			"count":3744,
			"type":"SCALAR"
		}
	],
	"bufferViews":[
		{
			"buffer":0,
			"byteLength":45552,
			"byteOffset":0,
			"target":34962
		},
		{
			"buffer":0,
			"byteLength":30368,
			"byteOffset":45552,
			"target":34962
		},
		{
			"buffer":0,
			"byteLength":45552,
			"byteOffset":75920,
			"target":34962
		},
		{
			"buffer":0,
			"byteLength":28680,
			"byteOffset":121472,
			"target":34963
		},
		{
			"buffer":0,
			"byteLength":26676,
			"byteOffset":150152,
			"target":34962
		},
		{
			"buffer":0,
			"byteLength":17784,
			"byteOffset":176828,
			"target":34962
		},
		{
			"buffer":0,
			"byteLength":26676,
			"byteOffset":194612,
			"target":34962
		},
		{
			"buffer":0,
			"byteLength":13104,
			"byteOffset":221288,
			"target":34963
		},
		{
			"buffer":0,
			"byteLength":213756,
			"byteOffset":234392,
			"target":34962
		},
		{
			"buffer":0,
			"byteLength":142504,
			"byteOffset":448148,
			"target":34962
		},
		{
			"buffer":0,
			"byteLength":213756,
			"byteOffset":590652,
			"target":34962
		},
		{
			"buffer":0,
			"byteLength":130776,
			"byteOffset":804408,
			"target":34963
		},
		{
			"buffer":0,
			"byteLength":13584,
			"byteOffset":935184,
			"target":34962
		},
		{
			"buffer":0,
			"byteLength":9056,
			"byteOffset":948768,
			"target":34962
		},
		{
			"buffer":0,
			"byteLength":13584,
			"byteOffset":957824,
			"target":34962
		},
		{
			"buffer":0,
			"byteLength":7488,
			"byteOffset":971408,
			"target":34963
		}
	],
	"buffers":[
		{
			"byteLength":978896,
			"uri":"machine.bin"
		}
	]
}
